<?xml version="1.0" standalone="no"?>
<!DOCTYPE svg PUBLIC "-//W3C//DTD SVG 20010904//EN"
 "http://www.w3.org/TR/2001/REC-SVG-20010904/DTD/svg10.dtd">
<svg version="1.0" xmlns="http://www.w3.org/2000/svg"
 width="500.000000pt" height="500.000000pt" viewBox="0 0 500.000000 500.000000"
 preserveAspectRatio="xMidYMid meet">
<metadata>
Created by potrace 1.16, written by Peter Selinger 2001-2019
</metadata>
<g transform="translate(0.000000,500.000000) scale(0.100000,-0.100000)"
fill="#0b132b" stroke="none">
<path d="M500 3789 l0 -515 174 -57 c96 -31 179 -57 185 -57 8 0 11 120 11
388 l0 387 -185 185 -185 185 0 -516z M1190 3883 c0 -5 93 -102 208 -216 l207
-207 238 0 c130 0 237 2 237 4 0 2 -40 98 -89 213 l-90 208 -355 3 c-196 1
-356 -1 -356 -5z M2130 3876 c0 -8 35 -103 79 -213 l79 -198 275 -3 275 -2 47
122 c26 68 63 161 81 207 19 47 34 89 34 93 0 4 -196 8 -435 8 -367 0 -435 -2
-435 -14z M3211 3868 c-5 -13 -45 -108 -90 -213 l-80 -190 242 -3 242 -3 202
208 c112 114 203 211 203 216 0 4 -160 7 -355 7 l-355 0 -9 -22z M3857 3522
l-197 -197 0 -179 0 -178 28 7 c15 3 105 31 200 62 l172 55 0 314 c0 173 -1
314 -3 314 -1 0 -91 -89 -200 -198z M1540 2876 l0 -215 78 -23 77 -24 3 160 3
159 -73 76 c-40 42 -76 78 -80 79 -5 2 -8 -93 -8 -212z M500 2574 c0 -385 3
-485 13 -482 6 3 90 31 185 62 l172 58 -2 370 -3 370 -170 54 c-93 30 -175 54
-182 54 -10 0 -13 -102 -13 -486z M2076 2958 c69 -83 56 -78 182 -78 l114 0
-6 25 c-3 13 -11 36 -16 50 l-10 25 -141 0 -142 0 19 -22z M2400 2976 c0 -2 9
-25 20 -50 l19 -46 139 0 c153 0 153 0 170 63 l10 37 -179 0 c-98 0 -179 -2
-179 -4z M2807 2945 c-30 -63 -28 -65 82 -65 55 0 106 3 115 6 8 3 31 26 51
50 l36 44 -133 0 -134 0 -17 -35z M3087 2888 l-48 -43 3 -106 3 -106 48 14 47
14 0 134 c0 74 -1 135 -3 135 -1 0 -24 -19 -50 -42z M3848 2817 l-188 -61 0
-177 0 -177 28 -10 c53 -21 355 -122 363 -122 5 0 9 137 9 305 0 238 -3 305
-12 304 -7 -1 -97 -29 -200 -62z M2090 2580 c0 -78 2 -91 19 -100 34 -18 39
-12 46 61 7 68 6 72 -21 100 -15 16 -31 29 -36 29 -4 0 -8 -40 -8 -90z M2310
2622 c0 -20 39 -42 73 -42 37 0 42 5 31 34 -4 12 -20 16 -55 16 -27 0 -49 -4
-49 -8z M2440 2621 c0 -33 14 -41 71 -41 32 0 59 4 59 9 0 5 3 16 6 25 5 14
-4 16 -65 16 -39 0 -71 -4 -71 -9z M2590 2611 c-15 -30 -14 -31 38 -31 38 1
50 5 65 25 l18 25 -55 0 c-44 0 -57 -4 -66 -19z M2717 2582 c-11 -12 -17 -36
-17 -64 0 -41 2 -46 20 -41 17 5 20 14 20 64 0 33 -2 59 -3 59 -2 0 -11 -8
-20 -18z M3073 2588 l-33 -11 0 -102 0 -103 31 -11 c69 -24 69 -25 69 114 0
138 2 135 -67 113z M1540 2360 c0 -229 -8 -214 95 -177 l60 22 0 159 0 160
-60 18 c-103 31 -95 46 -95 -182z M2713 2453 c-19 -7 -17 -89 2 -97 12 -4 15
5 15 49 0 30 -1 55 -2 54 -2 0 -9 -3 -15 -6z M2090 2360 c0 -72 2 -80 19 -80
45 0 51 9 51 76 0 52 -3 65 -19 74 -45 24 -51 15 -51 -70z M2690 2290 c0 -27
7 -51 21 -68 l20 -26 -3 64 c-2 52 -6 65 -20 68 -15 3 -18 -4 -18 -38z M3040
2211 l0 -107 50 -49 50 -49 0 140 0 140 -50 16 -50 16 0 -107z M2113 2238
c-21 -10 -23 -18 -23 -100 0 -48 4 -88 9 -88 5 0 20 15 35 34 22 29 26 45 26
100 0 70 -4 75 -47 54z M3670 2102 c0 -49 -2 -129 -5 -178 l-6 -89 200 -205
200 -205 1 321 0 321 -182 61 c-101 34 -189 62 -195 62 -10 0 -13 -24 -13 -88z
M1613 2093 l-73 -25 0 -219 c0 -120 3 -219 8 -219 4 0 40 33 80 73 l72 72 0
173 c0 94 -3 172 -7 171 -5 0 -41 -12 -80 -26z M2151 2048 c-17 -18 -31 -35
-31 -38 0 -3 38 -4 86 -2 80 3 86 5 95 28 15 41 12 44 -55 44 -60 0 -67 -2
-95 -32z M2340 2050 c-7 -17 -10 -33 -8 -36 3 -2 55 -3 115 -2 l109 3 -8 33
-9 32 -93 0 -94 0 -12 -30z M2575 2063 c4 -10 9 -26 12 -35 4 -14 21 -17 94
-20 49 -2 89 1 89 5 0 5 -13 22 -29 38 -27 27 -35 29 -101 29 -65 0 -71 -2
-65 -17z M681 1942 l-174 -57 2 -488 c1 -269 5 -495 8 -504 4 -11 55 34 179
158 l174 174 0 387 c0 214 -3 388 -7 387 -5 0 -86 -26 -182 -57z M1673 1654
c-40 -42 -73 -80 -73 -85 0 -5 95 -9 215 -9 l216 0 34 76 c19 42 35 80 35 85
0 5 -80 9 -177 9 l-178 0 -72 -76z M2186 1722 c-15 -25 -55 -146 -50 -153 8
-13 574 -12 574 1 0 6 -14 44 -31 85 l-32 75 -228 0 c-125 0 -230 -4 -233 -8z
M2736 1708 c3 -13 19 -51 35 -85 l28 -63 215 0 c128 0 216 4 216 9 0 6 -30 44
-67 85 l-66 76 -184 0 -184 0 7 -22z M804 898 l-179 -183 519 -3 c286 -1 523
1 526 5 8 10 150 346 150 356 0 4 -188 7 -418 7 l-419 0 -179 -182z M2021
1058 c-5 -13 -41 -95 -80 -182 -39 -88 -69 -161 -68 -162 1 -2 313 -6 691 -10
676 -7 689 -7 682 12 -40 108 -143 342 -155 352 -11 9 -134 12 -538 12 l-523
0 -9 -22z M3300 1071 c0 -5 36 -89 79 -187 l80 -179 233 -2 c128 -2 360 1 516
5 l282 7 -177 183 -178 182 -417 0 c-234 0 -418 -4 -418 -9z"/>
</g>
</svg>
